# xmcd CD database file
#
# Track frame offsets:
#	150
#	19220
#	40700
#	59845
#
# Disc length: 1080 seconds
#
# Revision: 3
# Processed by: cddbd v1.5.1PL0 Copyright (c) Steve Scherf et al.
# Submitted via: CDex 1.51
#
DISCID=31043604
DTITLE=the★tambourines - afresh wish
DYEAR=2003
DGENRE=JPop
TTITLE0=afresh wish
TTITLE1=dive to the sky
TTITLE2=afresh wish (instrumental)
TTITLE3=dive to the sky (instrumental)
EXTD=YEAR: 2003
EXTT0=
EXTT1=
EXTT2=
EXTT3=
PLAYORDER=
